<?xml version="1.0" standalone="no"?>
<!DOCTYPE svg PUBLIC "-//W3C//DTD SVG 20010904//EN"
 "http://www.w3.org/TR/2001/REC-SVG-20010904/DTD/svg10.dtd">
<svg version="1.0" xmlns="http://www.w3.org/2000/svg"
 width="300.000000pt" height="300.000000pt" viewBox="0 0 300.000000 300.000000"
 preserveAspectRatio="xMidYMid meet">
<metadata>
Created by potrace 1.14, written by Peter Selinger 2001-2017
</metadata>
<g transform="translate(0.000000,300.000000) scale(0.100000,-0.100000)"
fill="#000000" stroke="none">
<path d="M1009 2906 c-10 -24 -22 -72 -26 -106 -5 -48 -10 -64 -24 -67 -11 -3
-19 -18 -22 -41 -6 -48 0 -2303 7 -2364 2 -26 12 -60 21 -75 16 -28 84 -82
108 -87 7 -2 26 -8 42 -15 81 -33 297 -61 425 -56 146 7 236 15 269 25 17 5
31 7 31 5 0 -3 12 0 28 6 15 6 34 12 42 14 49 11 127 64 152 106 l28 45 5
1004 c2 553 6 1038 8 1078 1 39 -1 72 -6 72 -4 0 -5 5 -2 10 12 19 13 109 1
114 -8 3 -8 7 1 13 13 9 13 30 0 51 -5 6 -4 12 1 12 6 0 9 16 8 36 -2 29 -9
40 -30 51 -15 8 -37 12 -49 10 -19 -4 -18 -4 4 -6 37 -2 57 -26 32 -39 -42
-22 -148 -37 -324 -47 -73 -4 -128 9 -158 36 -10 10 -22 15 -25 12 -7 -7 -76
22 -128 54 -21 13 -46 23 -56 23 -10 0 -22 4 -27 9 -10 10 -303 161 -312 161
-2 0 -13 -20 -24 -44z m-24 -195 c3 -5 1 -12 -5 -16 -5 -3 -10 1 -10 9 0 18 6
21 15 7z m1104 -38 c-6 -7 -17 -13 -23 -12 -7 0 -6 2 2 6 6 2 10 8 8 12 -3 4
1 8 9 8 11 0 12 -4 4 -14z m-1091 -5 c7 -7 12 -21 12 -31 0 -24 37 -85 65
-109 12 -11 15 -18 8 -19 -23 -3 -28 -4 -61 -18 -54 -23 -81 25 -36 66 11 10
15 15 10 11 -16 -13 -29 -9 -23 6 3 7 0 19 -6 26 -9 10 -9 11 0 6 6 -3 14 -2
18 4 3 5 1 10 -6 10 -8 0 -8 4 1 15 10 12 10 15 -1 16 -12 0 -12 1 0 6 11 5
11 7 0 14 -8 5 -9 9 -3 9 5 0 15 -5 22 -12z m996 -31 c22 -22 9 -22 -16 0 -10
9 -18 11 -18 5 0 -6 9 -17 20 -25 18 -12 18 -15 4 -35 -20 -28 -32 -21 -29 18
1 16 -2 27 -7 24 -5 -3 -18 2 -28 11 -12 11 -20 13 -25 5 -4 -6 -1 -9 7 -8 7
2 12 -3 11 -9 -2 -7 0 -12 5 -12 35 6 38 -16 6 -53 l-19 -23 23 19 c12 11 22
14 22 8 0 -6 -9 -17 -21 -25 -20 -15 -20 -15 4 -13 14 0 23 6 19 11 -3 6 -2 7
3 3 4 -4 16 3 27 15 19 21 19 21 9 1 -6 -12 -7 -25 -3 -29 4 -5 1 -5 -5 -1 -7
4 -13 2 -13 -3 0 -6 5 -11 10 -11 6 0 10 -4 10 -8 0 -5 -7 -9 -15 -9 -8 0 -12
4 -10 8 3 4 -2 9 -10 13 -8 3 -14 2 -12 -2 5 -16 -11 -16 -56 2 -26 10 -45 21
-43 25 3 4 -3 7 -12 8 -9 0 -40 7 -69 14 -55 14 -75 41 -45 59 14 8 13 9 -7
10 -38 0 -21 8 32 13 44 5 47 4 35 -11 -12 -16 -11 -16 7 0 36 30 181 34 209
5z m56 3 c0 -5 -5 -10 -11 -10 -5 0 -7 5 -4 10 3 6 8 10 11 10 2 0 4 -4 4 -10z"/>
<path d="M1935 2640 c3 -5 8 -10 11 -10 2 0 4 5 4 10 0 6 -5 10 -11 10 -5 0
-7 -4 -4 -10z"/>
<path d="M1810 2620 c0 -5 5 -10 11 -10 5 0 7 5 4 10 -3 6 -8 10 -11 10 -2 0
-4 -4 -4 -10z"/>
<path d="M1964 2595 c0 -13 4 -21 8 -19 4 3 8 11 8 19 0 8 -4 16 -8 19 -4 2
-8 -6 -8 -19z"/>
<path d="M1915 2590 c3 -5 8 -10 11 -10 2 0 4 5 4 10 0 6 -5 10 -11 10 -5 0
-7 -4 -4 -10z"/>
<path d="M1530 2780 c0 -5 5 -10 11 -10 5 0 7 5 4 10 -3 6 -8 10 -11 10 -2 0
-4 -4 -4 -10z"/>
<path d="M1668 2773 c6 -2 18 -2 25 0 6 3 1 5 -13 5 -14 0 -19 -2 -12 -5z"/>
</g>
</svg>
